# 3ds Max Wavefront OBJ Exporter v0.97b - (c)2007 guruware
# File Created: 27.03.2018 11:26:30

#
# object Cube
#

v  1.0000 0.0190 -0.7621
v  0.7508 0.0190 -0.7604
v  0.7484 0.0190 -1.0000
v  1.0000 0.0190 -1.0000
v  0.7642 2.0190 -1.0000
v  0.7646 2.0190 -0.7608
v  1.0000 2.0190 -0.7622
v  1.0000 2.0190 -1.0000
v  1.0000 1.7761 -0.7622
v  1.0000 1.5699 -0.7622
v  1.0000 0.2770 -0.7621
v  1.0000 0.0190 1.0000
v  1.0000 1.7714 1.0000
v  0.7681 1.7714 1.0000
v  0.7681 1.5832 1.0000
v  0.7681 0.2666 1.0000
v  0.7681 0.0190 1.0000
v  -1.0000 0.0190 1.0000
v  -1.0000 1.7697 1.0000
v  -1.0000 1.7723 0.7439
v  -1.0000 1.5622 0.7461
v  -1.0000 0.2711 0.7595
v  -1.0000 0.0190 0.7621
v  0.7504 0.2667 -1.0000
v  0.7519 0.4632 -1.0000
v  0.7622 1.7715 -1.0000
v  -1.0000 0.4656 -0.7485
v  -1.0000 1.7875 -0.7502
v  -1.0000 1.7901 -1.0000
v  -1.0000 0.2592 -0.7483
v  -1.0000 0.0190 -0.7480
v  -1.0000 0.0190 -1.0000
v  -1.0000 2.0190 1.0000
v  -1.0000 1.7741 0.5673
v  -1.0000 2.0190 -0.7505
v  -1.0000 2.0190 -1.0000
v  -0.7524 0.4607 1.0000
v  -0.7524 1.7714 1.0000
v  -0.7524 0.2745 1.0000
v  -0.7524 0.0190 1.0000
v  -0.5485 0.2734 1.0000
v  0.5525 1.7714 1.0000
v  0.7681 2.0190 1.0000
v  -0.7524 2.0190 1.0000
v  1.0000 2.0190 1.0000
v  0.7681 0.2666 0.9700
v  -0.5485 0.2734 0.9700
v  -0.7587 1.7752 -1.0000
v  -0.7587 1.7752 -0.9700
v  -0.7606 1.5789 -0.9700
v  -0.7606 1.5789 -1.0000
v  0.7681 1.5832 0.9700
v  1.0000 1.7660 0.7558
v  1.0000 2.0190 0.7571
v  1.0000 0.4733 0.7493
v  1.0000 0.2720 0.7483
v  1.0000 0.0190 0.7471
v  1.0000 0.2727 0.5508
v  1.0000 1.7747 -0.5458
v  0.9700 1.7660 0.7558
v  0.9700 1.7747 -0.5458
v  0.9700 0.4733 0.7493
v  -0.9700 1.5622 0.7461
v  -0.9700 0.2711 0.7595
v  -1.0000 0.2607 -0.5541
v  -0.9700 0.2592 -0.7483
v  -0.9700 0.4656 -0.7485
v  -0.9700 1.7875 -0.7502
v  0.9700 0.2770 -0.7621
v  0.9700 0.2727 0.5508
v  -0.5560 1.7747 -1.0000
v  -0.7563 2.0190 -1.0000
v  -0.7734 0.2746 -1.0000
v  -0.7759 0.0190 -1.0000
v  -0.7734 0.2746 -0.9700
v  0.5480 0.2678 -1.0000
v  -0.7524 0.2745 0.9700
v  -0.7524 0.4607 0.9700
v  -0.7524 1.7714 0.9700
v  0.7676 2.0190 0.7575
v  0.5559 2.0190 0.7579
v  -0.7528 2.0190 0.7602
v  0.7672 2.0190 0.5441
v  -0.7558 2.0190 -0.7519
v  -0.5559 2.0190 -0.7531
v  -0.7554 2.0190 -0.5599
v  -0.5559 1.9890 -0.7531
v  0.7646 1.9890 -0.7608
v  -0.7552 0.0190 0.7602
v  -0.7552 0.0490 0.7602
v  0.5482 0.0490 0.7505
v  0.5482 0.0190 0.7505
v  -0.7730 0.0190 -0.7496
v  -0.7730 0.0490 -0.7496
v  -0.7709 0.0490 -0.5715
v  -0.7709 0.0190 -0.5715
v  -0.5480 0.0190 -0.7512
v  0.7656 0.0190 0.7488
v  0.5559 1.9890 0.7579
v  -0.7528 1.9890 0.7602
v  0.7637 0.0190 0.5558
v  0.7637 0.0490 0.5558
v  0.7508 0.0490 -0.7604
v  0.7681 1.7714 0.9700
v  0.5525 1.7714 0.9700
v  -0.7524 1.7714 0.9409
v  0.5525 1.7714 0.9409
v  0.7519 0.4632 -0.9700
v  0.7519 0.4632 -0.9409
v  0.7622 1.7715 -0.9409
v  0.7622 1.7715 -0.9700
v  -0.5560 1.7747 -0.9700
v  0.7504 0.2667 -0.9700
v  0.5480 0.2678 -0.9700
v  0.7681 0.2666 0.9409
v  -0.5485 0.2734 0.9409
v  0.7681 1.5832 0.9409
v  0.9700 1.5699 -0.7622
v  0.9700 1.7761 -0.7622
v  0.9700 0.2720 0.7483
v  0.9409 1.5699 -0.7622
v  0.9409 0.2770 -0.7621
v  -0.9700 1.7741 0.5673
v  -0.9409 1.7741 0.5673
v  -0.9409 0.4656 -0.7485
v  -0.9700 0.2607 -0.5541
v  -0.9700 1.7723 0.7439
v  -0.9409 1.5622 0.7461
v  -0.9409 0.2711 0.7595
v  0.9409 0.2727 0.5508
v  0.7637 0.0781 0.5558
v  0.7508 0.0781 -0.7604
v  -0.5559 1.9599 -0.7531
v  0.7646 1.9599 -0.7608
v  0.7676 1.9890 0.7575
v  0.7672 1.9890 0.5441
v  -0.7558 1.9890 -0.7519
v  -0.7554 1.9890 -0.5599
v  -0.5480 0.0490 -0.7512
v  0.7656 0.0490 0.7488
v  -0.5480 0.0781 -0.7512
v  -0.7709 0.0781 -0.5715
v  -0.7552 0.0781 0.7602
v  0.9409 0.4733 0.7493
v  0.9409 1.7747 -0.5458
v  0.9409 1.7660 0.7558
v  -0.9409 0.2607 -0.5541
v  -0.9409 1.7875 -0.7502
v  -0.7524 0.4607 0.9409
v  -0.7606 1.5789 -0.9409
v  0.5480 0.2678 -0.9409
v  -0.7734 0.2746 -0.9409
v  -0.5560 1.7747 -0.9409
v  -0.7528 1.9599 0.7602
v  0.5559 1.9599 0.7579
v  -0.7554 1.9599 -0.5599
v  0.7672 1.9599 0.5441
v  0.5482 0.0781 0.7505
# 158 vertices

vn 0.0000 -1.0000 -0.0000
vn 0.0000 1.0000 -0.0000
vn 1.0000 0.0000 -0.0000
vn 0.0000 0.0000 1.0000
vn -1.0000 0.0000 -0.0000
vn 0.0000 0.0000 -1.0000
vn 0.0052 1.0000 -0.0000
vn 1.0000 -0.0098 -0.0000
vn 0.0000 -1.0000 -0.0066
vn 0.0000 0.0050 -1.0000
vn 0.0000 -0.0103 -0.9999
vn 0.0000 0.0012 1.0000
vn 0.0000 1.0000 0.0033
vn 0.0058 0.0000 1.0000
vn -0.0075 0.0000 -1.0000
vn 0.9999 0.0000 -0.0118
vn -0.0018 0.0000 -1.0000
vn -1.0000 0.0000 0.0098
vn -1.0000 0.0079 -0.0000
vn 0.7053 -0.7090 -0.0000
vn -0.0024 -1.0000 -0.0000
vn 0.0000 0.7091 -0.7051
vn 0.0000 1.0000 -0.0079
vn 0.0000 -0.9999 -0.0102
vn 0.0071 0.0000 1.0000
vn -1.0000 0.0000 0.0020
vn 1.0000 0.0000 -0.0020
vn 0.0000 0.7054 0.7088
vn 0.0000 -0.7067 0.7075
vn 0.0000 -0.7114 -0.7028
vn 0.7081 0.7061 -0.0000
vn -0.7087 0.7056 -0.0000
vn -0.7078 -0.7064 -0.0000
vn -0.7079 0.0000 0.7063
vn -0.7088 0.0000 0.7054
vn 0.7058 0.0000 -0.7084
vn 0.7001 0.0000 -0.7141
# 37 vertex normals

vt 0.1189 0.0000 0.0000
vt 0.1198 0.1246 0.0000
vt 0.0000 0.1258 0.0000
vt 0.0000 0.0000 0.0000
vt 0.1179 0.0000 0.0000
vt 0.1177 0.1196 0.0000
vt 0.0000 0.1189 0.0000
vt 1.0000 0.0000 0.0000
vt 1.0000 0.1189 0.0000
vt 0.8786 0.1189 0.0000
vt 0.7754 0.1189 0.0000
vt 0.1290 0.1189 0.0000
vt 0.8762 0.0000 0.0000
vt 0.8762 0.1160 0.0000
vt 0.7821 0.1160 0.0000
vt 0.1238 0.1160 0.0000
vt 0.0000 0.1160 0.0000
vt 0.8754 0.0000 0.0000
vt 0.8767 0.1280 0.0000
vt 0.7716 0.1269 0.0000
vt 0.1260 0.1203 0.0000
vt 0.0000 0.1190 0.0000
vt 1.0000 0.1258 0.0000
vt 0.8761 0.1248 0.0000
vt 0.7779 0.1240 0.0000
vt 0.1237 0.1189 0.0000
vt 0.0000 0.1179 0.0000
vt 0.2233 0.8743 0.0000
vt 0.8843 0.8751 0.0000
vt 0.8855 1.0000 0.0000
vt 0.1201 0.8741 0.0000
vt 0.0000 0.8740 0.0000
vt 0.0000 1.0000 0.0000
vt 0.8776 0.2163 0.0000
vt 1.0000 0.8752 0.0000
vt 1.0000 1.0000 0.0000
vt 0.2209 0.8762 0.0000
vt 0.8762 0.8762 0.0000
vt 0.8754 1.0000 0.0000
vt 0.1277 0.8762 0.0000
vt 0.0000 0.8762 0.0000
vt 0.1272 0.7743 0.0000
vt 0.8762 0.2237 0.0000
vt 1.0000 0.1160 0.0000
vt 1.0000 0.8762 0.0000
vt 0.1219 0.8793 0.0000
vt 0.2200 0.8803 0.0000
vt 0.8735 0.8779 0.0000
vt 1.0000 0.8786 0.0000
vt 0.2272 0.8747 0.0000
vt 0.1265 0.8742 0.0000
vt 0.0000 0.8735 0.0000
vt 0.8762 1.0000 0.0000
vt 0.1268 0.7754 0.0000
vt 0.8778 0.2271 0.0000
vt 0.1209 0.7770 0.0000
vt 0.1222 0.7780 0.0000
vt 0.0000 0.8782 0.0000
vt 0.8722 0.8867 0.0000
vt 1.0000 0.8880 0.0000
vt 0.1145 1.0000 0.0000
vt 0.8756 0.2260 0.0000
vt 0.1160 1.0000 0.0000
vt 0.1162 0.8788 0.0000
vt 0.2220 0.8790 0.0000
vt 0.8764 0.8801 0.0000
vt 0.1164 0.7721 0.0000
vt 0.0000 0.8786 0.0000
vt 0.8779 0.1241 0.0000
vt 0.8782 0.0000 0.0000
vt 1.0000 0.1248 0.0000
vt 0.7780 0.1235 0.0000
vt 0.8777 0.2201 0.0000
vt 0.8801 0.8776 0.0000
vt 0.8752 0.2259 0.0000
vt 0.1252 0.8865 0.0000
vt 0.2143 0.8854 0.0000
vt 0.1244 0.7740 0.0000
vt 0.0000 0.8880 0.0000
vt 0.1260 1.0000 0.0000
vt 0.8744 0.1172 0.0000
vt 0.8810 1.0000 0.0000
vt 0.8735 0.0000 0.0000
vt 0.7779 0.1181 0.0000
# 84 texture coords

o Cube
g Cube
s off
f 1/1/1 2/2/1 3/3/1 
f 3/3/1 4/4/1 1/1/1 
f 5/5/2 6/6/2 7/7/2 
f 7/7/2 8/4/2 5/5/2 
f 4/4/3 8/8/3 7/9/3 
f 4/4/3 7/9/3 9/10/3 
f 4/4/3 9/10/3 10/11/3 
f 4/4/3 10/11/3 11/12/3 
f 4/4/3 11/12/3 1/7/3 
f 12/4/4 13/13/4 14/14/4 
f 12/4/4 14/14/4 15/15/4 
f 12/4/4 15/15/4 16/16/4 
f 12/4/4 16/16/4 17/17/4 
f 18/4/5 19/18/5 20/19/5 
f 18/4/5 20/19/5 21/20/5 
f 18/4/5 21/20/5 22/21/5 
f 18/4/5 22/21/5 23/22/5 
f 8/4/6 4/8/6 3/23/6 
f 8/4/6 3/23/6 24/24/6 
f 8/4/6 24/24/6 25/25/6 
f 8/4/6 25/25/6 26/26/6 
f 8/4/6 26/26/6 5/27/6 
f 27/28/5 28/29/5 29/30/5 
f 30/31/5 27/28/5 29/30/5 
f 31/32/5 30/31/5 29/30/5 
f 31/32/5 29/30/5 32/33/5 
f 20/19/5 19/18/5 33/8/5 
f 34/34/5 20/19/5 33/8/5 
f 28/29/5 34/34/5 33/8/5 
f 28/29/5 33/8/5 35/35/5 
f 29/30/5 28/29/5 35/35/5 
f 35/35/5 36/36/5 29/30/5 
f 37/37/4 38/38/4 19/39/4 
f 39/40/4 37/37/4 19/39/4 
f 40/41/4 39/40/4 19/39/4 
f 40/41/4 19/39/4 18/33/4 
f 17/17/4 16/16/4 41/42/4 
f 17/17/4 41/42/4 39/40/4 
f 17/17/4 39/40/4 40/41/4 
f 42/43/4 14/14/4 43/44/4 
f 38/38/4 42/43/4 43/44/4 
f 38/38/4 43/44/4 44/45/4 
f 13/13/4 45/8/4 43/44/4 
f 43/44/4 14/14/4 13/13/4 
f 38/38/4 44/45/4 33/36/4 
f 33/36/4 19/39/4 38/38/4 
f 16/16/7 46/16/7 47/42/7 
f 47/42/7 41/42/7 16/16/7 
f 48/46/8 49/46/8 50/47/8 
f 50/47/8 51/47/8 48/46/8 
f 15/15/5 52/15/5 46/16/5 
f 46/16/5 16/16/5 15/15/5 
f 53/48/3 54/49/3 45/36/3 
f 55/50/3 53/48/3 45/36/3 
f 56/51/3 55/50/3 45/36/3 
f 57/52/3 56/51/3 45/36/3 
f 57/52/3 45/36/3 13/53/3 
f 57/52/3 13/53/3 12/33/3 
f 1/7/3 11/12/3 58/54/3 
f 1/7/3 58/54/3 56/51/3 
f 1/7/3 56/51/3 57/52/3 
f 59/55/3 9/10/3 7/9/3 
f 53/48/3 59/55/3 7/9/3 
f 53/48/3 7/9/3 54/49/3 
f 53/48/9 60/48/9 61/55/9 
f 61/55/9 59/55/9 53/48/9 
f 55/50/10 62/50/10 60/48/10 
f 60/48/10 53/48/10 55/50/10 
f 21/20/11 63/20/11 64/21/11 
f 64/21/11 22/21/11 21/20/11 
f 23/22/5 22/21/5 65/56/5 
f 23/22/5 65/56/5 30/31/5 
f 23/22/5 30/31/5 31/32/5 
f 30/31/12 66/31/12 67/28/12 
f 67/28/12 27/28/12 30/31/12 
f 27/28/12 67/28/12 68/29/12 
f 68/29/12 28/29/12 27/28/12 
f 11/12/13 69/12/13 70/54/13 
f 70/54/13 58/54/13 11/12/13 
f 5/27/6 26/26/6 71/57/6 
f 5/27/6 71/57/6 48/46/6 
f 5/27/6 48/46/6 72/58/6 
f 73/59/6 74/60/6 32/36/6 
f 51/47/6 73/59/6 32/36/6 
f 48/46/6 51/47/6 32/36/6 
f 72/58/6 48/46/6 32/36/6 
f 72/58/6 32/36/6 29/61/6 
f 72/58/6 29/61/6 36/33/6 
f 51/47/8 50/47/8 75/59/8 
f 75/59/8 73/59/8 51/47/8 
f 76/62/6 24/24/6 3/23/6 
f 73/59/6 76/62/6 3/23/6 
f 73/59/6 3/23/6 74/60/6 
f 39/40/3 77/40/3 78/37/3 
f 78/37/3 37/37/3 39/40/3 
f 37/37/3 78/37/3 79/38/3 
f 79/38/3 38/38/3 37/37/3 
f 43/63/2 80/64/2 81/65/2 
f 43/63/2 81/65/2 82/66/2 
f 43/63/2 82/66/2 44/53/2 
f 7/7/2 6/6/2 83/67/2 
f 7/7/2 83/67/2 80/64/2 
f 7/7/2 80/64/2 54/68/2 
f 84/69/2 72/70/2 36/8/2 
f 36/8/2 35/71/2 84/69/2 
f 72/70/2 84/69/2 85/72/2 
f 72/70/2 85/72/2 6/6/2 
f 72/70/2 6/6/2 5/5/2 
f 86/73/2 84/69/2 35/71/2 
f 82/66/2 86/73/2 35/71/2 
f 44/53/2 82/66/2 35/71/2 
f 44/53/2 35/71/2 33/36/2 
f 80/64/2 43/63/2 45/33/2 
f 45/33/2 54/68/2 80/64/2 
f 85/72/14 87/72/14 88/6/14 
f 88/6/14 6/6/14 85/72/14 
f 89/74/15 90/74/15 91/75/15 
f 91/75/15 92/75/15 89/74/15 
f 93/76/16 94/76/16 95/77/16 
f 95/77/16 96/77/16 93/76/16 
f 3/3/1 2/2/1 97/78/1 
f 3/3/1 97/78/1 93/76/1 
f 3/3/1 93/76/1 74/79/1 
f 93/76/1 31/80/1 32/33/1 
f 32/33/1 74/79/1 93/76/1 
f 92/75/1 98/81/1 17/44/1 
f 89/74/1 92/75/1 17/44/1 
f 89/74/1 17/44/1 40/45/1 
f 89/74/1 40/45/1 18/36/1 
f 18/36/1 23/82/1 89/74/1 
f 57/83/1 12/8/1 17/44/1 
f 17/44/1 98/81/1 57/83/1 
f 81/65/17 99/65/17 100/66/17 
f 100/66/17 82/66/17 81/65/17 
f 31/80/1 93/76/1 96/77/1 
f 31/80/1 96/77/1 89/74/1 
f 31/80/1 89/74/1 23/82/1 
f 1/1/1 57/83/1 98/81/1 
f 1/1/1 98/81/1 101/84/1 
f 2/2/1 1/1/1 101/84/1 
f 96/77/16 95/77/16 90/74/16 
f 90/74/16 89/74/16 96/77/16 
f 101/84/18 102/84/18 103/2/18 
f 103/2/18 2/2/18 101/84/18 
f 47/42/4 52/15/4 104/14/4 
f 47/42/4 104/14/4 105/43/4 
f 47/42/4 105/43/4 78/37/4 
f 77/40/4 47/42/4 78/37/4 
f 79/38/1 106/38/1 107/43/1 
f 107/43/1 105/43/1 79/38/1 
f 108/25/19 109/25/19 110/26/19 
f 110/26/19 111/26/19 108/25/19 
f 112/57/6 108/25/6 113/24/6 
f 112/57/6 113/24/6 114/62/6 
f 112/57/6 114/62/6 50/47/6 
f 49/46/6 112/57/6 50/47/6 
f 46/16/7 115/16/7 116/42/7 
f 116/42/7 47/42/7 46/16/7 
f 47/42/20 116/42/20 117/15/20 
f 117/15/20 52/15/20 47/42/20 
f 25/25/19 108/25/19 111/26/19 
f 111/26/19 26/26/19 25/25/19 
f 26/26/21 111/26/21 112/57/21 
f 112/57/21 71/57/21 26/26/21 
f 41/42/7 47/42/7 77/40/7 
f 77/40/7 39/40/7 41/42/7 
f 71/57/21 112/57/21 49/46/21 
f 49/46/21 48/46/21 71/57/21 
f 14/14/5 104/14/5 52/15/5 
f 52/15/5 15/15/5 14/14/5 
f 38/38/1 79/38/1 105/43/1 
f 105/43/1 42/43/1 38/38/1 
f 24/24/19 113/24/19 108/25/19 
f 108/25/19 25/25/19 24/24/19 
f 76/62/7 114/62/7 113/24/7 
f 113/24/7 24/24/7 76/62/7 
f 42/43/1 105/43/1 104/14/1 
f 104/14/1 14/14/1 42/43/1 
f 73/59/7 75/59/7 114/62/7 
f 114/62/7 76/62/7 73/59/7 
f 70/54/3 118/11/3 119/10/3 
f 70/54/3 119/10/3 61/55/3 
f 70/54/3 61/55/3 62/50/3 
f 120/51/3 70/54/3 62/50/3 
f 118/11/4 121/11/4 122/12/4 
f 122/12/4 69/12/4 118/11/4 
f 123/34/22 124/34/22 125/28/22 
f 125/28/22 67/28/22 123/34/22 
f 126/56/5 63/20/5 127/19/5 
f 126/56/5 127/19/5 123/34/5 
f 126/56/5 123/34/5 67/28/5 
f 66/31/5 126/56/5 67/28/5 
f 63/20/11 128/20/11 129/21/11 
f 129/21/11 64/21/11 63/20/11 
f 69/12/13 122/12/13 130/54/13 
f 130/54/13 70/54/13 69/12/13 
f 65/56/23 126/56/23 66/31/23 
f 66/31/23 30/31/23 65/56/23 
f 59/55/9 61/55/9 119/10/9 
f 119/10/9 9/10/9 59/55/9 
f 56/51/10 120/51/10 62/50/10 
f 62/50/10 55/50/10 56/51/10 
f 22/21/23 64/21/23 126/56/23 
f 126/56/23 65/56/23 22/21/23 
f 10/11/4 118/11/4 69/12/4 
f 69/12/4 11/12/4 10/11/4 
f 20/19/11 127/19/11 63/20/11 
f 63/20/11 21/20/11 20/19/11 
f 58/54/13 70/54/13 120/51/13 
f 120/51/13 56/51/13 58/54/13 
f 34/34/24 123/34/24 127/19/24 
f 127/19/24 20/19/24 34/34/24 
f 9/10/4 119/10/4 118/11/4 
f 118/11/4 10/11/4 9/10/4 
f 28/29/24 68/29/24 123/34/24 
f 123/34/24 34/34/24 28/29/24 
f 102/84/18 131/84/18 132/2/18 
f 132/2/18 103/2/18 102/84/18 
f 87/72/14 133/72/14 134/6/14 
f 134/6/14 88/6/14 87/72/14 
f 99/65/2 135/64/2 136/67/2 
f 99/65/2 136/67/2 87/72/2 
f 99/65/2 87/72/2 137/69/2 
f 138/73/2 99/65/2 137/69/2 
f 139/78/1 102/84/1 140/81/1 
f 139/78/1 140/81/1 91/75/1 
f 139/78/1 91/75/1 95/77/1 
f 94/76/1 139/78/1 95/77/1 
f 103/2/25 132/2/25 141/78/25 
f 141/78/25 139/78/25 103/2/25 
f 95/77/16 142/77/16 143/74/16 
f 143/74/16 90/74/16 95/77/16 
f 97/78/25 139/78/25 94/76/25 
f 94/76/25 93/76/25 97/78/25 
f 84/69/14 137/69/14 87/72/14 
f 87/72/14 85/72/14 84/69/14 
f 6/6/26 88/6/26 136/67/26 
f 136/67/26 83/67/26 6/6/26 
f 86/73/27 138/73/27 137/69/27 
f 137/69/27 84/69/27 86/73/27 
f 92/75/15 91/75/15 140/81/15 
f 140/81/15 98/81/15 92/75/15 
f 80/64/17 135/64/17 99/65/17 
f 99/65/17 81/65/17 80/64/17 
f 2/2/25 103/2/25 139/78/25 
f 139/78/25 97/78/25 2/2/25 
f 83/67/26 136/67/26 135/64/26 
f 135/64/26 80/64/26 83/67/26 
f 82/66/27 100/66/27 138/73/27 
f 138/73/27 86/73/27 82/66/27 
f 98/81/18 140/81/18 102/84/18 
f 102/84/18 101/84/18 98/81/18 
f 121/11/3 130/54/3 122/12/3 
f 144/50/3 145/55/3 146/48/3 
f 128/20/5 147/56/5 129/21/5 
f 125/28/5 124/34/5 148/29/5 
f 61/55/28 145/55/28 144/50/28 
f 144/50/28 62/50/28 61/55/28 
f 126/56/29 147/56/29 128/20/29 
f 128/20/29 63/20/29 126/56/29 
f 70/54/30 130/54/30 121/11/30 
f 121/11/30 118/11/30 70/54/30 
f 68/29/24 148/29/24 124/34/24 
f 124/34/24 123/34/24 68/29/24 
f 60/48/9 146/48/9 145/55/9 
f 145/55/9 61/55/9 60/48/9 
f 62/50/10 144/50/10 146/48/10 
f 146/48/10 60/48/10 62/50/10 
f 64/21/23 129/21/23 147/56/23 
f 147/56/23 126/56/23 64/21/23 
f 67/28/12 125/28/12 148/29/12 
f 148/29/12 68/29/12 67/28/12 
f 117/15/4 116/42/4 115/16/4 
f 149/37/4 107/43/4 106/38/4 
f 150/47/6 151/62/6 152/59/6 
f 109/25/6 153/57/6 110/26/6 
f 75/59/7 152/59/7 151/62/7 
f 151/62/7 114/62/7 75/59/7 
f 111/26/21 110/26/21 153/57/21 
f 153/57/21 112/57/21 111/26/21 
f 78/37/3 149/37/3 106/38/3 
f 106/38/3 79/38/3 78/37/3 
f 50/47/8 150/47/8 152/59/8 
f 152/59/8 75/59/8 50/47/8 
f 112/57/31 153/57/31 109/25/31 
f 109/25/31 108/25/31 112/57/31 
f 52/15/5 117/15/5 115/16/5 
f 115/16/5 46/16/5 52/15/5 
f 105/43/32 107/43/32 149/37/32 
f 149/37/32 78/37/32 105/43/32 
f 114/62/33 151/62/33 150/47/33 
f 150/47/33 50/47/33 114/62/33 
f 154/66/2 155/65/2 156/73/2 
f 133/72/2 157/67/2 134/6/2 
f 131/84/1 141/78/1 132/2/1 
f 142/77/1 158/75/1 143/74/1 
f 90/74/15 143/74/15 158/75/15 
f 158/75/15 91/75/15 90/74/15 
f 100/66/27 154/66/27 156/73/27 
f 156/73/27 138/73/27 100/66/27 
f 88/6/26 134/6/26 157/67/26 
f 157/67/26 136/67/26 88/6/26 
f 91/75/34 158/75/34 142/77/34 
f 142/77/34 95/77/34 91/75/34 
f 138/73/35 156/73/35 155/65/35 
f 155/65/35 99/65/35 138/73/35 
f 139/78/36 141/78/36 131/84/36 
f 131/84/36 102/84/36 139/78/36 
f 136/67/37 157/67/37 133/72/37 
f 133/72/37 87/72/37 136/67/37 
f 99/65/17 155/65/17 154/66/17 
f 154/66/17 100/66/17 99/65/17 
# 312 faces

