# 3ds Max Wavefront OBJ Exporter v0.97b - (c)2007 guruware
# File Created: 22.04.2018 15:27:52

mtllib grass0.mtl

#
# object Grass_1_Plane_000
#

v  -0.0187 0.1783 0.0832
v  0.0000 0.3689 0.1194
v  0.0000 0.3689 -0.0045
v  -0.0187 0.1783 -0.0491
v  0.0577 0.5455 0.0799
v  0.0577 0.5455 -0.0012
v  0.0216 -0.0123 0.0469
v  0.0216 -0.0123 -0.0936
v  -0.0075 0.1787 0.0832
v  -0.0076 0.1791 -0.0491
v  0.0110 0.3666 -0.0045
v  0.0110 0.3666 0.1194
v  0.0683 0.5420 -0.0012
v  0.0683 0.5420 0.0799
v  0.0325 -0.0100 0.0469
v  0.0325 -0.0100 -0.0936
v  0.0732 0.2032 -0.0700
v  0.0705 0.2019 -0.1589
v  0.0942 0.1138 -0.1480
v  0.0971 0.1152 -0.0510
v  0.0626 0.2962 -0.1458
v  0.0609 0.2954 -0.2020
v  0.0792 -0.0116 -0.0914
v  0.0765 -0.0130 -0.1802
v  0.1053 0.1144 -0.1484
v  0.0815 0.2037 -0.1593
v  0.0842 0.2054 -0.0703
v  0.1083 0.1160 -0.0513
v  0.0721 0.2963 -0.2024
v  0.0738 0.2972 -0.1462
v  0.0903 -0.0131 -0.0917
v  0.0876 -0.0144 -0.1805
v  -0.0636 0.0923 0.1603
v  -0.0622 0.1842 0.1307
v  -0.0910 0.1842 0.1923
v  -0.0943 0.0923 0.2261
v  0.0037 0.2938 0.1615
v  -0.0151 0.2938 0.2018
v  -0.1058 -0.0123 0.1987
v  -0.0733 -0.0123 0.1289
v  -0.0738 0.0927 0.1556
v  -0.1044 0.0929 0.2213
v  -0.1010 0.1862 0.1877
v  -0.0720 0.1872 0.1262
v  -0.0235 0.3000 0.1979
v  -0.0047 0.3000 0.1576
v  -0.1158 -0.0100 0.1941
v  -0.0832 -0.0100 0.1242
# 48 vertices

vn -0.9952 0.0979 -0.0000
vn -0.9506 0.3103 -0.0000
vn -0.9783 -0.2070 -0.0000
vn 0.9952 -0.0983 -0.0002
vn 0.9505 -0.3107 -0.0000
vn 0.9782 0.2076 0.0003
vn 0.2069 -0.9784 -0.0000
vn -0.0158 -0.1867 0.9823
vn -0.0320 0.2221 -0.9745
vn 0.3103 0.9506 -0.0000
vn 0.0045 0.0170 -0.9998
vn 0.0539 0.2021 0.9779
vn 0.0226 -0.1831 0.9828
vn 0.0139 0.2283 -0.9735
vn -0.9662 -0.2557 0.0334
vn -0.9957 -0.0873 0.0318
vn -0.9910 0.1308 0.0284
vn 0.9667 0.2538 -0.0337
vn 0.9957 0.0870 -0.0315
vn 0.9912 -0.1292 -0.0282
vn -0.1303 -0.9913 0.0187
vn 0.0029 0.2100 0.9777
vn -0.0197 0.2467 -0.9689
vn -0.0878 0.9961 -0.0121
vn 0.0225 -0.4183 -0.9080
vn -0.0659 0.6287 0.7748
vn 0.0199 -0.3033 0.9527
vn -0.0182 -0.1268 -0.9918
vn 0.8996 0.1213 0.4195
vn 0.7548 -0.5536 0.3520
vn 0.8869 -0.2060 0.4135
vn -0.8991 -0.1166 -0.4219
vn -0.7588 0.5492 -0.3502
vn -0.8865 0.2074 -0.4136
vn -0.1867 -0.9785 -0.0871
vn 0.3639 -0.2865 -0.8863
vn -0.4370 -0.1833 0.8806
vn 0.5017 0.8328 0.2339
vn -0.3565 0.1638 0.9198
vn 0.4226 0.0000 -0.9063
vn 0.4370 0.2240 -0.8711
vn -0.3644 0.3300 0.8708
# 42 vertex normals

vt 0.1988 0.5691 0.0000
vt 0.1933 0.2633 0.0000
vt 0.3488 0.2946 0.0000
vt 0.3647 0.6024 0.0000
vt 0.2823 0.0000 0.0000
vt 0.3841 0.0204 0.0000
vt 0.2077 0.8773 0.0000
vt 0.3841 0.9128 0.0000
vt 0.0052 0.3393 0.0000
vt 0.1707 0.3068 0.0000
vt 0.1550 0.6106 0.0000
vt 0.0000 0.6415 0.0000
vt 0.1933 0.8848 0.0000
vt 0.0919 0.9051 0.0000
vt 0.0175 0.0352 0.0000
vt 0.1933 0.0000 0.0000
vt 0.5231 0.7190 0.0000
vt 0.5092 0.7191 0.0000
vt 0.5092 0.4969 0.0000
vt 0.5231 0.4968 0.0000
vt 0.8077 0.2595 0.0000
vt 0.8216 0.2624 0.0000
vt 0.8354 0.5298 0.0000
vt 0.8215 0.5310 0.0000
vt 0.7941 0.8954 0.0000
vt 0.7295 0.5925 0.0000
vt 0.7434 0.5900 0.0000
vt 0.8077 0.8906 0.0000
vt 0.5373 0.4969 0.0000
vt 0.5515 0.4968 0.0000
vt 0.5515 0.6246 0.0000
vt 0.5373 0.6247 0.0000
vt 0.7939 0.0000 0.0000
vt 0.8077 0.0043 0.0000
vt 0.7534 0.2856 0.0000
vt 0.7393 0.2833 0.0000
vt 0.8674 0.8255 0.0000
vt 0.8810 0.8225 0.0000
vt 0.8676 0.0000 0.0000
vt 0.8810 0.0057 0.0000
vt 0.3990 0.1601 0.0000
vt 0.5118 0.1524 0.0000
vt 0.5071 0.2932 0.0000
vt 0.3841 0.3015 0.0000
vt 0.4865 0.0048 0.0000
vt 0.5578 0.0000 0.0000
vt 0.4452 0.4968 0.0000
vt 0.5578 0.4891 0.0000
vt 0.6803 0.2073 0.0000
vt 0.6838 0.3487 0.0000
vt 0.5715 0.3425 0.0000
vt 0.5578 0.2001 0.0000
vt 0.7295 0.4990 0.0000
vt 0.6585 0.4947 0.0000
vt 0.6173 0.0000 0.0000
vt 0.7295 0.0068 0.0000
vt 0.5373 0.4968 0.0000
vt 0.5373 0.6373 0.0000
vt 0.5231 0.6372 0.0000
vt 0.9578 0.8142 0.0000
vt 0.9437 0.8133 0.0000
vt 0.9686 0.6687 0.0000
vt 0.9825 0.6718 0.0000
vt 0.9630 0.2059 0.0000
vt 0.9489 0.2055 0.0000
vt 0.9862 0.0000 0.0000
vt 1.0000 0.0036 0.0000
vt 0.5365 0.7264 0.0000
vt 0.5231 0.7259 0.0000
vt 0.5231 0.6373 0.0000
vt 0.5365 0.6379 0.0000
vt 1.0000 0.4848 0.0000
vt 0.9859 0.4850 0.0000
vt 0.9740 0.3462 0.0000
vt 0.9880 0.3448 0.0000
vt 0.9996 0.4932 0.0000
vt 0.9855 0.4921 0.0000
vt 0.9996 0.9821 0.0000
vt 0.9858 0.9846 0.0000
vt 0.4711 0.6625 0.0000
vt 0.5092 0.8077 0.0000
vt 0.4277 0.8078 0.0000
vt 0.3841 0.6626 0.0000
vt 0.4789 0.9821 0.0000
vt 0.4255 0.9822 0.0000
vt 0.4167 0.4969 0.0000
vt 0.5092 0.4968 0.0000
vt 0.6433 0.8256 0.0000
vt 0.5578 0.8238 0.0000
vt 0.6016 0.6766 0.0000
vt 0.6816 0.6765 0.0000
vt 0.5945 0.4990 0.0000
vt 0.6469 0.5000 0.0000
vt 0.5908 0.9863 0.0000
vt 0.6816 0.9880 0.0000
vt 0.5513 0.7466 0.0000
vt 0.5373 0.7466 0.0000
vt 0.5513 0.6247 0.0000
vt 0.8945 0.6957 0.0000
vt 0.9255 0.8291 0.0000
vt 0.9124 0.8333 0.0000
vt 0.8810 0.6958 0.0000
vt 0.9489 0.0001 0.0000
vt 0.9341 0.1453 0.0000
vt 0.9204 0.1426 0.0000
vt 0.9349 0.0000 0.0000
vt 0.5228 0.7896 0.0000
vt 0.5092 0.7894 0.0000
vt 0.5228 0.7193 0.0000
vt 0.8950 0.2924 0.0000
vt 0.9489 0.4862 0.0000
vt 0.9355 0.4921 0.0000
vt 0.8810 0.2917 0.0000
vt 0.9309 0.4921 0.0000
vt 0.9437 0.4974 0.0000
vt 0.9437 0.9987 0.0000
vt 0.9303 1.0000 0.0000
# 117 texture coords

o Grass_1_Plane_000
g Grass_1_Plane_000
usemtl Green_2
s 1
f 1/1/1 2/2/1 3/3/1 
f 3/3/1 4/4/1 1/1/1 
f 3/3/2 2/2/2 5/5/2 
f 5/5/2 6/6/2 3/3/2 
f 7/7/3 1/1/3 4/4/3 
f 4/4/3 8/8/3 7/7/3 
f 9/9/4 10/10/4 11/11/4 
f 11/11/4 12/12/4 9/9/4 
f 11/11/5 13/13/5 14/14/5 
f 14/14/5 12/12/5 11/11/5 
f 15/15/6 16/16/6 10/10/6 
f 10/10/6 9/9/6 15/15/6 
f 8/17/7 16/18/7 15/19/7 
f 15/19/7 7/20/7 8/17/7 
f 1/21/8 9/22/8 12/23/8 
f 12/23/8 2/24/8 1/21/8 
f 8/25/9 4/26/9 10/27/9 
f 10/27/9 16/28/9 8/25/9 
f 5/29/10 14/30/10 13/31/10 
f 13/31/10 6/32/10 5/29/10 
f 6/33/11 13/34/11 11/35/11 
f 11/35/11 3/36/11 6/33/11 
f 5/37/12 2/24/12 12/23/12 
f 12/23/12 14/38/12 5/37/12 
f 7/39/13 15/40/13 9/22/13 
f 9/22/13 1/21/13 7/39/13 
f 3/36/14 11/35/14 10/27/14 
f 10/27/14 4/26/14 3/36/14 
f 17/41/15 18/42/15 19/43/15 
f 19/43/15 20/44/15 17/41/15 
f 18/42/16 17/41/16 21/45/16 
f 21/45/16 22/46/16 18/42/16 
f 23/47/17 20/44/17 19/43/17 
f 19/43/17 24/48/17 23/47/17 
f 25/49/18 26/50/18 27/51/18 
f 27/51/18 28/52/18 25/49/18 
f 26/50/19 29/53/19 30/54/19 
f 30/54/19 27/51/19 26/50/19 
f 31/55/20 32/56/20 25/49/20 
f 25/49/20 28/52/20 31/55/20 
f 24/20/21 32/57/21 31/58/21 
f 31/58/21 23/59/21 24/20/21 
f 20/60/22 28/61/22 27/62/22 
f 27/62/22 17/63/22 20/60/22 
f 19/64/23 25/65/23 32/66/23 
f 32/66/23 24/67/23 19/64/23 
f 21/68/24 30/69/24 29/70/24 
f 29/70/24 22/71/24 21/68/24 
f 22/72/25 29/73/25 26/74/25 
f 26/74/25 18/75/25 22/72/25 
f 21/76/26 17/63/26 27/62/26 
f 27/62/26 30/77/26 21/76/26 
f 20/60/27 23/78/27 31/79/27 
f 31/79/27 28/61/27 20/60/27 
f 19/64/28 18/75/28 26/74/28 
f 26/74/28 25/65/28 19/64/28 
f 33/80/29 34/81/29 35/82/29 
f 35/82/29 36/83/29 33/80/29 
f 34/81/30 37/84/30 38/85/30 
f 38/85/30 35/82/30 34/81/30 
f 33/80/31 36/83/31 39/86/31 
f 39/86/31 40/87/31 33/80/31 
f 41/88/32 42/89/32 43/90/32 
f 43/90/32 44/91/32 41/88/32 
f 45/92/33 46/93/33 44/91/33 
f 44/91/33 43/90/33 45/92/33 
f 47/94/34 42/89/34 41/88/34 
f 41/88/34 48/95/34 47/94/34 
f 39/96/35 47/97/35 48/32/35 
f 48/32/35 40/98/35 39/96/35 
f 34/99/36 33/100/36 41/101/36 
f 41/101/36 44/102/36 34/99/36 
f 39/103/37 36/104/37 42/105/37 
f 42/105/37 47/106/37 39/103/37 
f 37/107/38 46/108/38 45/18/38 
f 45/18/38 38/109/38 37/107/38 
f 35/110/39 38/111/39 45/112/39 
f 45/112/39 43/113/39 35/110/39 
f 34/99/40 44/102/40 46/114/40 
f 46/114/40 37/115/40 34/99/40 
f 40/116/41 48/117/41 41/101/41 
f 41/101/41 33/100/41 40/116/41 
f 35/110/42 43/113/42 42/105/42 
f 42/105/42 36/104/42 35/110/42 
# 84 faces

