# 3ds Max Wavefront OBJ Exporter v0.97b - (c)2007 guruware
# File Created: 27.03.2018 10:21:59

#
# object rock_05
#

v  0.6818 0.0000 -4.1064
v  3.5024 0.0000 -3.3984
v  3.5024 0.0000 1.1598
v  1.0559 -0.0000 3.6063
v  -3.2127 0.0000 2.0939
v  -3.5024 0.0000 -0.9520
v  2.6180 3.0630 -0.2020
v  2.8482 2.2658 -2.8104
v  0.5170 2.9316 -3.1744
v  -0.5649 3.5608 -2.1854
v  1.6109 3.5608 0.4008
v  -3.0694 1.4996 -0.8652
v  -0.7011 3.5608 -2.0827
v  -2.7396 1.7866 1.7486
v  -1.1793 3.1447 1.9116
v  -0.7011 3.5608 1.6552
v  0.9849 0.8157 3.3470
v  0.4544 3.5608 1.6552
v  1.1382 1.5412 2.8998
v  3.1420 1.2480 1.0147
# 20 vertices

vn 0.0000 -1.0000 -0.0000
vn 0.3021 0.9188 -0.2541
vn -0.5879 0.2149 -0.7799
vn -0.9582 0.2714 0.0911
vn -0.6565 0.7543 -0.0000
vn -0.3224 0.2612 0.9099
vn 0.0000 1.0000 -0.0000
vn 0.2317 0.3065 -0.9232
vn 0.6117 0.5547 0.5640
vn 0.9608 0.2774 -0.0000
vn 0.0000 0.5247 0.8513
vn 0.6798 0.2753 0.6798
# 12 vertex normals

vt 0.1793 0.9060 0.0000
vt 0.1793 0.8913 0.0000
vt 0.1666 0.8840 0.0000
vt 0.1539 0.8913 0.0000
vt 0.1539 0.9060 0.0000
vt 0.1666 0.9133 0.0000
vt 0.1805 0.9032 0.0000
vt 0.1752 0.8868 0.0000
vt 0.1579 0.8868 0.0000
vt 0.1526 0.9032 0.0000
vt 0.1812 0.8840 0.0000
vt 0.1812 0.9133 0.0000
vt 0.1519 0.9133 0.0000
vt 0.1519 0.8840 0.0000
# 14 texture coords

o rock_05
g rock_05
s 1
f 1/1/1 2/2/1 3/3/1 
f 3/3/1 4/4/1 5/5/1 
f 1/1/1 3/3/1 5/5/1 
f 6/6/1 1/1/1 5/5/1 
f 7/7/2 8/8/2 9/9/2 
f 7/7/2 9/9/2 10/10/2 
f 11/6/2 7/7/2 10/10/2 
f 1/1/3 6/2/3 12/3/3 
f 12/3/3 13/4/3 10/5/3 
f 1/1/3 12/3/3 10/5/3 
f 9/6/3 1/1/3 10/5/3 
f 14/11/4 12/12/4 6/13/4 
f 6/13/4 5/14/4 14/11/4 
f 14/8/5 15/9/5 16/10/5 
f 12/7/5 14/8/5 16/10/5 
f 13/6/5 12/7/5 16/10/5 
f 15/8/6 14/9/6 5/10/6 
f 17/7/6 15/8/6 5/10/6 
f 4/6/6 17/7/6 5/10/6 
f 10/7/7 13/8/7 16/9/7 
f 10/7/7 16/9/7 18/10/7 
f 11/6/7 10/7/7 18/10/7 
f 1/14/8 9/11/8 8/12/8 
f 8/12/8 2/13/8 1/14/8 
f 18/7/9 19/8/9 20/9/9 
f 18/7/9 20/9/9 7/10/9 
f 11/6/9 18/7/9 7/10/9 
f 7/8/10 20/9/10 3/10/10 
f 8/7/10 7/8/10 3/10/10 
f 2/6/10 8/7/10 3/10/10 
f 15/7/11 17/8/11 19/9/11 
f 15/7/11 19/9/11 18/10/11 
f 16/6/11 15/7/11 18/10/11 
f 3/8/12 20/9/12 19/10/12 
f 4/7/12 3/8/12 19/10/12 
f 17/6/12 4/7/12 19/10/12 
# 36 faces

