# 3ds Max Wavefront OBJ Exporter v0.97b - (c)2007 guruware
# File Created: 27.03.2018 10:19:55

#
# object rock_06
#

v  -1.6806 2.6755 0.9785
v  -0.4696 2.8282 1.8472
v  0.9768 3.3309 1.3678
v  -2.1286 3.0508 -1.3863
v  -1.0175 3.4574 -1.8513
v  -0.8002 -0.0128 2.7659
v  1.2150 -0.0062 2.3015
v  3.4567 1.7866 -2.5128
v  1.9382 3.1447 -2.9069
v  1.4271 3.5608 -2.7246
v  3.2613 1.4737 -0.0093
v  2.6397 0.7366 -3.2710
v  0.6429 1.5781 -4.0788
v  0.2846 3.5608 -2.8971
v  -1.9774 0.2105 -3.3528
v  -2.6181 0.7073 -2.7504
v  -2.1769 2.1068 -2.0363
v  -0.2586 1.5628 -4.1691
v  -2.3139 0.5907 1.8484
v  -1.5096 -0.0142 2.4695
v  -3.1585 0.6914 0.7311
v  2.4434 -0.0006 1.2105
v  2.1404 0.0066 -2.8193
v  -2.5239 -0.0138 0.8546
v  -1.7016 -0.0039 -2.9214
v  -0.1909 1.6028 -4.1893
# 26 vertices

vn -0.2621 0.9442 0.1995
vn 0.2144 0.2776 0.9365
vn 0.6582 0.7424 0.1246
vn 0.4546 0.2612 -0.8516
vn -0.0217 0.9981 0.0573
vn -0.5746 0.4251 -0.6994
vn -0.4561 0.3822 0.8037
vn -0.7928 0.5607 0.2392
vn 0.8282 -0.5588 -0.0424
vn -0.7151 -0.5199 0.4673
vn 0.6410 0.2479 0.7264
vn -0.6674 -0.7350 -0.1199
vn 0.0028 -1.0000 -0.0020
vn 0.0732 -0.6304 -0.7728
vn -0.5379 0.5471 -0.6414
vn 0.1271 0.5247 -0.8418
vn -0.9212 0.3625 -0.1413
vn -0.6940 0.4465 0.5649
vn -0.9505 0.2077 -0.2309
# 19 vertex normals

vt 0.1774 0.8197 0.0000
vt 0.1557 0.8197 0.0000
vt 0.1490 0.8404 0.0000
vt 0.1842 0.8404 0.0000
vt 0.1666 0.8532 0.0000
vt 0.1481 0.8162 0.0000
vt 0.1851 0.8162 0.0000
vt 0.1851 0.8532 0.0000
vt 0.1481 0.8532 0.0000
vt 0.1810 0.8462 0.0000
vt 0.1846 0.8306 0.0000
vt 0.1746 0.8180 0.0000
vt 0.1585 0.8180 0.0000
vt 0.1485 0.8306 0.0000
vt 0.1521 0.8462 0.0000
vt 0.1826 0.8439 0.0000
vt 0.1826 0.8254 0.0000
vt 0.1666 0.8162 0.0000
vt 0.1505 0.8254 0.0000
vt 0.1505 0.8439 0.0000
# 20 texture coords

o rock_06
g rock_06
s 1
f 1/1/1 2/2/1 3/3/1 
f 4/4/1 1/1/1 3/3/1 
f 5/5/1 4/4/1 3/3/1 
f 2/6/2 6/7/2 7/8/2 
f 7/8/2 3/9/2 2/6/2 
f 8/1/3 9/2/3 10/3/3 
f 11/4/3 8/1/3 10/3/3 
f 3/5/3 11/4/3 10/3/3 
f 12/6/4 13/7/4 9/8/4 
f 9/8/4 8/9/4 12/6/4 
f 5/6/5 3/7/5 10/8/5 
f 10/8/5 14/9/5 5/6/5 
f 15/7/6 16/8/6 17/9/6 
f 17/9/6 18/6/6 15/7/6 
f 2/4/7 1/1/7 19/2/7 
f 2/4/7 19/2/7 20/3/7 
f 6/5/7 2/4/7 20/3/7 
f 1/6/8 4/7/8 21/8/8 
f 11/1/9 22/2/9 23/3/9 
f 8/4/9 11/1/9 23/3/9 
f 12/5/9 8/4/9 23/3/9 
f 24/7/10 20/8/10 19/9/10 
f 19/9/10 21/6/10 24/7/10 
f 7/7/11 22/8/11 11/9/11 
f 11/9/11 3/6/11 7/7/11 
f 24/4/12 21/1/12 16/2/12 
f 24/4/12 16/2/12 15/3/12 
f 25/5/12 24/4/12 15/3/12 
f 22/10/13 7/11/13 6/12/13 
f 6/12/13 20/13/13 24/14/13 
f 22/10/13 6/12/13 24/14/13 
f 22/10/13 24/14/13 25/15/13 
f 23/5/13 22/10/13 25/15/13 
f 15/10/14 18/11/14 26/12/14 
f 26/12/14 13/13/14 12/14/14 
f 26/12/14 12/14/14 23/15/14 
f 15/10/14 26/12/14 23/15/14 
f 25/5/14 15/10/14 23/15/14 
f 14/16/15 26/17/15 18/18/15 
f 14/16/15 18/18/15 17/19/15 
f 14/16/15 17/19/15 4/20/15 
f 5/5/15 14/16/15 4/20/15 
f 13/1/16 26/2/16 14/3/16 
f 9/4/16 13/1/16 14/3/16 
f 10/5/16 9/4/16 14/3/16 
f 16/6/17 21/7/17 17/8/17 
f 19/6/18 1/7/18 21/8/18 
f 4/6/19 17/7/19 21/8/19 
# 48 faces

