# 3ds Max Wavefront OBJ Exporter v0.97b - (c)2007 guruware
# File Created: 22.04.2018 14:40:13

mtllib tree2.mtl

#
# object mesh1952414952
#

v  -0.1792 -0.0116 -0.0779
v  -0.1966 8.5577 -0.1589
v  0.4744 8.5565 -0.4306
v  0.4918 -0.0128 -0.3496
v  -0.2795 -0.0050 0.6390
v  -0.2969 8.5643 0.5581
v  0.2913 0.0004 1.0843
v  0.2739 8.5697 1.0034
v  0.9624 -0.0008 0.8126
v  0.9450 8.5684 0.7317
v  1.0626 -0.0074 0.0957
v  1.0452 8.5619 0.0147
v  3.1498 3.9643 5.3951
v  6.4386 3.0952 1.1918
v  0.6150 14.8253 -0.1961
v  4.7655 3.0631 -3.7324
v  -1.0939 3.3170 -5.1003
v  -5.0365 3.5655 0.5080
v  -1.7105 3.8068 4.9150
v  1.1112 7.0918 -0.0608
v  -0.3380 10.9767 4.7720
v  3.5185 12.8450 2.5867
v  -2.5115 19.1898 -0.8404
v  4.5183 11.6458 -2.1863
v  1.1626 10.3460 -4.9681
v  -2.9418 9.8362 -3.3372
v  -4.4924 10.8605 1.2129
v  -0.1352 13.3224 -0.5118
v  3.1245 8.2962 4.5659
v  5.5058 9.1175 0.3416
v  -1.4640 16.6251 -0.5693
v  2.6962 8.2593 -4.3199
v  -1.9020 6.9663 -4.1544
v  -4.0364 7.8909 -0.2111
v  -2.5742 7.3332 4.2197
v  0.0944 10.8062 -0.2349
v  -0.3928 15.3754 3.4609
v  2.4168 16.2037 0.5264
v  -3.5335 21.3407 -0.8270
v  1.6015 15.3982 -3.0482
v  -2.2262 14.0905 -3.9590
v  -4.5566 13.5476 -1.4706
v  -4.2853 13.8832 2.5868
v  -2.0826 17.5291 -0.4778
# 44 vertices

vn -0.3753 -0.0095 -0.9269
vn -0.9904 -0.0033 -0.1384
vn -0.6151 0.0062 0.7884
vn 0.3753 0.0095 0.9269
vn 0.9904 0.0033 0.1384
vn 0.6151 -0.0062 -0.7884
vn -0.0020 1.0000 -0.0094
vn 0.0020 -1.0000 0.0095
vn 0.7515 0.4321 0.4986
vn 0.8686 0.3960 -0.2977
vn 0.2272 0.3530 -0.9076
vn -0.7599 0.3471 -0.5496
vn -0.7403 0.4051 0.5365
vn -0.1024 0.4363 0.8940
vn 0.0788 -0.8519 -0.5178
vn -0.6179 -0.7563 0.2149
vn 0.4868 -0.7879 0.3772
vn -0.1816 -0.7473 0.6392
vn -0.5405 -0.8011 -0.2572
vn 0.4543 -0.8399 -0.2969
vn 0.1656 0.5859 0.7933
vn 0.7298 0.6834 -0.0188
vn 0.4162 0.5208 -0.7454
vn -0.3842 0.2546 -0.8874
vn -0.9282 0.1353 -0.3467
vn -0.6208 0.3237 0.7140
vn 0.3415 -0.8638 -0.3704
vn -0.2756 -0.9443 0.1795
vn 0.3259 -0.7396 0.5889
vn -0.1127 -0.8411 0.5290
vn 0.2133 -0.8960 -0.3896
vn 0.5628 -0.7444 0.3594
vn 0.6175 0.6303 0.4706
vn 0.6634 0.5549 -0.5020
vn -0.1319 0.3502 -0.9274
vn -0.8339 0.2249 -0.5041
vn -0.9009 0.2790 0.3324
vn -0.1320 0.4665 0.8746
vn 0.1721 -0.8242 -0.5395
vn -0.3128 -0.8826 0.3510
vn 0.5166 -0.7283 0.4503
vn 0.2335 -0.7514 0.6172
vn -0.2512 -0.9138 -0.3192
vn 0.5523 -0.7849 -0.2810
vn 0.4365 0.6652 0.6057
vn 0.6611 0.6854 -0.3052
vn 0.0775 0.4071 -0.9101
vn -0.7378 0.1512 -0.6579
vn -0.9905 0.1254 0.0559
vn -0.3489 0.4189 0.8383
vn 0.4028 -0.7192 -0.5661
vn -0.3280 -0.9028 0.2783
vn 0.6690 -0.5424 0.5082
vn 0.0765 -0.7109 0.6991
vn -0.1705 -0.8935 -0.4154
vn 0.8508 -0.5253 -0.0134
# 56 vertex normals

vt -0.0801 0.3952 0.0000
vt -0.1386 0.4229 0.0000
vt -0.1363 0.4278 0.0000
vt -0.0778 0.4001 0.0000
vt 0.0382 0.3739 0.0000
vt -0.0069 0.4203 0.0000
vt -0.0030 0.4241 0.0000
vt 0.0421 0.3777 0.0000
vt 0.1568 0.1874 0.0000
vt 0.2054 0.2300 0.0000
vt 0.2090 0.2259 0.0000
vt 0.1604 0.1833 0.0000
vt 0.0778 0.4001 0.0000
vt 0.1363 0.4278 0.0000
vt 0.1386 0.4229 0.0000
vt 0.0801 0.3952 0.0000
vt -0.0421 0.3777 0.0000
vt 0.0030 0.4241 0.0000
vt 0.0069 0.4203 0.0000
vt -0.0382 0.3739 0.0000
vt -0.1604 0.1833 0.0000
vt -0.2090 0.2259 0.0000
vt -0.2054 0.2300 0.0000
vt -0.1568 0.1874 0.0000
vt 0.1672 0.3156 0.0000
vt 0.1623 0.3131 0.0000
vt 0.1577 0.3161 0.0000
vt 0.1580 0.3215 0.0000
vt 0.1629 0.3240 0.0000
vt 0.1675 0.3211 0.0000
vt -0.1580 0.3215 0.0000
vt -0.1577 0.3161 0.0000
vt -0.1623 0.3131 0.0000
vt -0.1672 0.3156 0.0000
vt -0.1675 0.3211 0.0000
vt -0.1629 0.3240 0.0000
vt 0.1284 0.3674 0.0000
vt 0.1131 0.4053 0.0000
vt 0.2124 0.4100 0.0000
vt -0.1055 0.1425 0.0000
vt -0.1426 0.1553 0.0000
vt -0.0962 0.2415 0.0000
vt -0.0604 0.2259 0.0000
vt -0.0751 0.1829 0.0000
vt -0.1581 0.2297 0.0000
vt 0.0346 0.4574 0.0000
vt 0.0014 0.4177 0.0000
vt -0.0524 0.4963 0.0000
vt 0.2063 0.3234 0.0000
vt 0.1675 0.3387 0.0000
vt 0.2167 0.4180 0.0000
vt 0.1747 0.3660 0.0000
vt 0.1549 0.3971 0.0000
vt 0.2435 0.4291 0.0000
vt -0.1756 0.3702 0.0000
vt -0.2045 0.4107 0.0000
vt -0.1556 0.4011 0.0000
vt -0.1664 0.0568 0.0000
vt -0.1826 0.1036 0.0000
vt -0.1434 0.1025 0.0000
vt -0.0752 0.4124 0.0000
vt -0.0876 0.3602 0.0000
vt -0.1233 0.3977 0.0000
vt -0.0214 0.1746 0.0000
vt -0.0677 0.1548 0.0000
vt -0.0639 0.2001 0.0000
vt -0.2075 0.2907 0.0000
vt -0.1640 0.3176 0.0000
vt -0.1596 0.2770 0.0000
vt -0.1504 0.3886 0.0000
vt -0.1903 0.3765 0.0000
vt -0.1795 0.4290 0.0000
vt 0.2101 0.4091 0.0000
vt 0.2124 0.4454 0.0000
vt 0.2826 0.4347 0.0000
vt 0.2071 0.1298 0.0000
vt 0.2233 0.1641 0.0000
vt 0.2729 0.1032 0.0000
vt -0.0799 0.1064 0.0000
vt -0.0689 0.0738 0.0000
vt -0.1472 0.0660 0.0000
vt -0.0868 0.4293 0.0000
vt -0.0975 0.3975 0.0000
vt -0.1654 0.4247 0.0000
vt -0.0128 0.4764 0.0000
vt -0.0427 0.4543 0.0000
vt -0.0771 0.5112 0.0000
vt 0.2374 0.3355 0.0000
vt 0.2037 0.3593 0.0000
vt 0.2736 0.3912 0.0000
vt -0.2050 0.3970 0.0000
vt -0.2066 0.4369 0.0000
vt -0.1683 0.4159 0.0000
vt -0.1519 0.1815 0.0000
vt -0.1549 0.2208 0.0000
vt -0.1219 0.2021 0.0000
vt -0.0083 0.3698 0.0000
vt -0.0407 0.3465 0.0000
vt -0.0488 0.3791 0.0000
vt -0.0384 0.1936 0.0000
vt -0.0784 0.2050 0.0000
vt -0.0544 0.2296 0.0000
vt -0.2143 0.4219 0.0000
vt -0.1812 0.4368 0.0000
vt -0.1761 0.4009 0.0000
vt -0.0542 0.4046 0.0000
vt -0.0871 0.4218 0.0000
vt -0.0542 0.4446 0.0000
vt 0.1796 0.3492 0.0000
vt 0.1866 0.3856 0.0000
vt 0.2602 0.3611 0.0000
vt -0.0236 -0.0514 0.0000
vt 0.0005 -0.0853 0.0000
vt -0.0700 -0.1137 0.0000
vt -0.0732 0.3512 0.0000
vt -0.0757 0.3152 0.0000
vt -0.1486 0.3423 0.0000
vt -0.0050 0.4737 0.0000
vt -0.0314 0.4513 0.0000
vt -0.0773 0.5026 0.0000
vt 0.1810 0.3659 0.0000
vt 0.1458 0.3620 0.0000
vt 0.1778 0.4346 0.0000
vt 0.2015 0.3758 0.0000
vt 0.1830 0.4154 0.0000
vt 0.2641 0.4247 0.0000
vt -0.1930 0.3840 0.0000
vt -0.2201 0.4225 0.0000
vt -0.1732 0.4229 0.0000
vt -0.1058 0.1298 0.0000
vt -0.1370 0.1569 0.0000
vt -0.0984 0.1722 0.0000
vt -0.0427 0.4238 0.0000
vt -0.0553 0.3878 0.0000
vt -0.0837 0.4076 0.0000
vt -0.0142 0.3341 0.0000
vt -0.0548 0.3171 0.0000
vt -0.0509 0.3529 0.0000
vt -0.2198 0.3350 0.0000
vt -0.1916 0.3675 0.0000
vt -0.1729 0.3354 0.0000
vt -0.1548 0.4064 0.0000
vt -0.1901 0.4090 0.0000
vt -0.1805 0.4459 0.0000
vt 0.2390 0.3805 0.0000
vt 0.2421 0.4116 0.0000
vt 0.2985 0.3905 0.0000
vt 0.1159 -0.0575 0.0000
vt 0.1442 -0.0563 0.0000
vt 0.1296 -0.1161 0.0000
vt -0.1284 0.2760 0.0000
vt -0.1261 0.2448 0.0000
vt -0.1859 0.2538 0.0000
vt -0.0947 0.4920 0.0000
vt -0.1046 0.4679 0.0000
vt -0.1545 0.5003 0.0000
vt 0.0779 0.4449 0.0000
vt 0.0491 0.4339 0.0000
vt 0.0474 0.4960 0.0000
vt 0.2490 0.3778 0.0000
vt 0.2374 0.4078 0.0000
vt 0.2970 0.4173 0.0000
vt -0.2238 0.4149 0.0000
vt -0.2446 0.4485 0.0000
vt -0.2088 0.4433 0.0000
vt -0.1238 0.1066 0.0000
vt -0.1390 0.1409 0.0000
vt -0.1106 0.1403 0.0000
vt 0.0253 0.4759 0.0000
vt 0.0011 0.4490 0.0000
vt -0.0114 0.4719 0.0000
vt 0.0455 0.2666 0.0000
vt 0.0088 0.2621 0.0000
vt 0.0179 0.2921 0.0000
vt -0.2545 0.3598 0.0000
vt -0.2277 0.3842 0.0000
vt -0.2187 0.3542 0.0000
vt -0.0905 0.4632 0.0000
vt -0.1204 0.4708 0.0000
vt -0.1012 0.5014 0.0000
# 180 texture coords

o mesh1952414952
g mesh1952414952
usemtl mat20
s 1
f 1/1/1 2/2/1 3/3/1 
f 3/3/1 4/4/1 1/1/1 
f 5/5/2 6/6/2 2/7/2 
f 2/7/2 1/8/2 5/5/2 
f 7/9/3 8/10/3 6/11/3 
f 6/11/3 5/12/3 7/9/3 
f 9/13/4 10/14/4 8/15/4 
f 8/15/4 7/16/4 9/13/4 
f 11/17/5 12/18/5 10/19/5 
f 10/19/5 9/20/5 11/17/5 
f 4/21/6 3/22/6 12/23/6 
f 12/23/6 11/24/6 4/21/6 
f 2/25/7 6/26/7 8/27/7 
f 8/27/7 10/28/7 12/29/7 
f 2/25/7 8/27/7 12/29/7 
f 3/30/7 2/25/7 12/29/7 
f 9/31/8 7/32/8 5/33/8 
f 5/33/8 1/34/8 4/35/8 
f 9/31/8 5/33/8 4/35/8 
f 11/36/8 9/31/8 4/35/8 
usemtl mat9
f 13/37/9 14/38/9 15/39/9 
f 14/40/10 16/41/10 15/42/10 
f 16/43/11 17/44/11 15/45/11 
f 17/46/12 18/47/12 15/48/12 
f 18/49/13 19/50/13 15/51/13 
f 19/52/14 13/53/14 15/54/14 
f 19/55/15 20/56/15 13/57/15 
f 20/58/16 16/59/16 14/60/16 
f 20/61/17 18/62/17 17/63/17 
f 20/64/18 17/65/18 16/66/18 
f 20/67/19 14/68/19 13/69/19 
f 19/70/20 18/71/20 20/72/20 
f 21/73/21 22/74/21 23/75/21 
f 22/76/22 24/77/22 23/78/22 
f 24/79/23 25/80/23 23/81/23 
f 25/82/24 26/83/24 23/84/24 
f 26/85/25 27/86/25 23/87/25 
f 27/88/26 21/89/26 23/90/26 
f 27/91/27 28/92/27 21/93/27 
f 28/94/28 24/95/28 22/96/28 
f 28/97/29 26/98/29 25/99/29 
f 28/100/30 25/101/30 24/102/30 
f 28/103/31 22/104/31 21/105/31 
f 27/106/32 26/107/32 28/108/32 
f 29/109/33 30/110/33 31/111/33 
f 30/112/34 32/113/34 31/114/34 
f 32/115/35 33/116/35 31/117/35 
f 33/118/36 34/119/36 31/120/36 
f 34/121/37 35/122/37 31/123/37 
f 35/124/38 29/125/38 31/126/38 
f 35/127/39 36/128/39 29/129/39 
f 36/130/40 32/131/40 30/132/40 
f 36/133/41 34/134/41 33/135/41 
f 36/136/42 33/137/42 32/138/42 
f 36/139/43 30/140/43 29/141/43 
f 35/142/44 34/143/44 36/144/44 
f 37/145/45 38/146/45 39/147/45 
f 38/148/46 40/149/46 39/150/46 
f 40/151/47 41/152/47 39/153/47 
f 41/154/48 42/155/48 39/156/48 
f 42/157/49 43/158/49 39/159/49 
f 43/160/50 37/161/50 39/162/50 
f 43/163/51 44/164/51 37/165/51 
f 44/166/52 40/167/52 38/168/52 
f 44/169/53 42/170/53 41/171/53 
f 44/172/54 41/173/54 40/174/54 
f 44/175/55 38/176/55 37/177/55 
f 43/178/56 42/179/56 44/180/56 
# 68 faces

